<?xml version="1.0" standalone="no"?>
<!DOCTYPE svg PUBLIC "-//W3C//DTD SVG 20010904//EN"
 "http://www.w3.org/TR/2001/REC-SVG-20010904/DTD/svg10.dtd">
<svg version="1.0" xmlns="http://www.w3.org/2000/svg"
 width="512.000000pt" height="512.000000pt" viewBox="0 0 512.000000 512.000000"
 preserveAspectRatio="xMidYMid meet">

<g transform="translate(0.000000,512.000000) scale(0.100000,-0.100000)"
fill="#000000" stroke="none">
<path d="M2990 5114 c-14 -2 -65 -9 -115 -15 -49 -6 -144 -25 -210 -41 -755
-189 -1330 -815 -1460 -1588 -23 -136 -31 -397 -16 -527 17 -141 55 -313 98
-438 72 -211 214 -461 352 -620 33 -38 60 -73 61 -76 0 -4 -34 -37 -76 -74
l-75 -68 -57 56 c-88 87 -163 107 -247 68 -27 -13 -226 -206 -621 -602 -645
-648 -620 -617 -618 -749 1 -102 26 -144 161 -280 99 -98 127 -120 176 -138
69 -26 126 -28 193 -6 44 15 105 72 642 608 326 325 599 602 606 616 44 84 23
167 -64 255 l-60 61 74 73 75 74 73 -62 c283 -241 638 -395 1031 -446 95 -13
112 -13 137 0 46 24 55 78 18 113 -18 16 -49 24 -138 36 -215 28 -374 75 -566
166 -213 101 -375 220 -544 397 -259 273 -425 625 -475 1006 -90 691 214 1361
795 1751 112 76 320 176 445 216 318 101 618 116 943 49 l102 -22 0 -98 0 -98
-51 15 c-152 45 -374 67 -552 53 -652 -49 -1221 -492 -1432 -1113 -151 -446
-92 -967 156 -1368 104 -168 266 -348 414 -459 396 -298 920 -400 1406 -274
452 117 846 446 1054 879 111 233 156 438 156 711 0 376 -128 737 -362 1022
l-59 71 0 127 0 127 64 -59 c128 -116 260 -299 360 -498 244 -484 244 -1092 1
-1590 -266 -544 -760 -908 -1365 -1005 -41 -7 -83 -16 -92 -21 -45 -24 -46
-97 -2 -126 21 -14 34 -14 102 -4 419 65 778 239 1076 522 628 594 793 1535
406 2309 -122 243 -292 460 -482 617 l-68 55 0 152 c0 174 -10 205 -76 243
-37 22 -49 23 -282 23 -220 0 -246 -2 -281 -19 -20 -11 -42 -26 -49 -33 -9
-12 -29 -10 -124 9 -62 12 -157 27 -212 33 -92 9 -291 12 -346 4z m1222 -979
l3 -834 22 -22 c26 -27 77 -29 101 -5 15 15 18 55 22 374 l5 357 38 -60 c239
-375 296 -858 152 -1281 -32 -94 -111 -255 -157 -322 l-33 -47 -5 363 c-5 345
-6 364 -24 378 -28 20 -69 17 -97 -5 l-24 -19 -3 -455 -3 -456 -52 -47 c-106
-95 -327 -244 -364 -244 -11 0 -13 259 -13 1573 0 866 3 1577 7 1580 3 4 100
7 214 7 l209 0 2 -835z m-752 466 c201 -47 199 -49 -55 -50 -253 -1 -275 -6
-320 -65 -18 -25 -20 -46 -25 -264 l-5 -237 -240 -5 c-344 -7 -328 8 -335
-330 l-5 -235 -242 -5 c-224 -5 -244 -6 -270 -26 -64 -47 -63 -41 -63 -564 -1
-543 7 -515 -90 -315 -111 229 -145 380 -144 640 0 147 5 199 23 285 131 616
591 1070 1196 1181 138 26 449 20 575 -10z m168 -1533 l-3 -1332 -85 -23 c-74
-21 -261 -52 -312 -53 -17 0 -18 72 -18 1370 l0 1370 210 0 210 0 -2 -1332z
m-570 -320 l-3 -1083 -50 3 c-75 5 -200 29 -292 58 l-83 25 0 1039 0 1040 215
0 215 0 -2 -1082z m-578 -209 l0 -721 -57 32 c-101 57 -199 129 -287 212 l-86
80 0 559 0 559 215 0 215 0 0 -721z m-977 -1037 c86 -87 157 -164 157 -172 0
-7 -49 -63 -110 -124 l-110 -111 -175 175 -175 175 107 107 c67 68 115 108
128 108 14 0 77 -56 178 -158z m-345 -345 l172 -172 -53 -53 -52 -52 -175 175
-175 175 50 50 c27 27 52 50 55 50 3 0 83 -78 178 -173z m-210 -210 l172 -172
-303 -302 c-170 -171 -315 -307 -332 -313 -63 -24 -94 -7 -212 113 -116 118
-131 145 -118 210 6 25 74 99 308 335 166 166 304 302 307 302 3 0 83 -78 178
-173z"/>
</g>
</svg>
