<?xml version="1.0" standalone="no"?>
<!DOCTYPE svg PUBLIC "-//W3C//DTD SVG 20010904//EN"
 "http://www.w3.org/TR/2001/REC-SVG-20010904/DTD/svg10.dtd">
<svg version="1.0" xmlns="http://www.w3.org/2000/svg"
 width="512.000000pt" height="512.000000pt" viewBox="0 0 512.000000 512.000000"
 preserveAspectRatio="xMidYMid meet">

<g transform="translate(0.000000,512.000000) scale(0.100000,-0.100000)"
fill="#000000" stroke="none">
<path d="M10 4605 l0 -515 260 0 260 0 0 120 0 120 250 0 250 0 -1 -127 0
-128 -47 -30 c-141 -90 -129 -313 22 -383 42 -20 61 -22 254 -22 199 0 211 1
253 23 151 79 156 306 9 389 l-40 23 0 128 0 127 1080 0 1080 0 0 -127 0 -128
-37 -20 c-149 -81 -145 -313 6 -392 42 -22 54 -23 251 -23 231 0 254 5 314 65
97 97 79 266 -36 340 l-47 30 0 128 -1 127 255 0 255 0 0 -120 0 -120 260 0
260 0 0 515 0 515 -2005 0 -2005 0 0 -75 0 -75 1745 0 1745 0 0 -245 0 -245
-2035 0 -2035 0 0 245 0 245 215 0 215 0 0 75 0 75 -475 0 -475 0 0 -515z
m370 0 l0 -365 -110 0 -110 0 0 365 0 365 110 0 110 0 0 -365z m4590 0 l0
-365 -110 0 -110 0 0 365 0 365 110 0 110 0 0 -365z m-3640 -395 l0 -120 -75
0 -75 0 0 120 0 120 75 0 75 0 0 -120z m2610 0 l0 -120 -75 0 -75 0 0 120 0
120 75 0 75 0 0 -120z m-2501 -285 c47 -24 55 -74 19 -112 -21 -22 -26 -23
-204 -23 l-183 0 -20 26 c-35 44 -26 89 23 110 45 20 327 19 365 -1z m2604 3
c50 -26 60 -69 26 -112 l-20 -26 -184 0 c-177 0 -185 1 -205 22 -36 39 -24 93
24 114 40 17 327 19 359 2z"/>
<path d="M2340 4725 l0 -76 73 3 72 3 3 73 3 72 -76 0 -75 0 0 -75z"/>
<path d="M2632 4728 l3 -73 73 -3 72 -3 0 76 0 75 -75 0 -76 0 3 -72z"/>
<path d="M851 3372 c-18 -35 -121 -281 -121 -290 0 -13 122 -64 131 -55 18 18
130 296 122 303 -4 5 -34 20 -65 34 -53 23 -59 23 -67 8z"/>
<path d="M3458 3234 l-67 -155 66 -30 c37 -16 69 -26 73 -22 5 7 109 242 127
289 4 10 -15 23 -61 44 -36 17 -67 30 -68 30 -2 0 -33 -70 -70 -156z"/>
<path d="M1523 3357 c-29 -13 -55 -25 -58 -28 -5 -6 101 -266 116 -283 10 -12
141 44 135 58 -55 136 -121 276 -130 276 -6 -1 -34 -11 -63 -23z"/>
<path d="M4190 3354 c-30 -14 -56 -27 -58 -28 -3 -4 109 -268 119 -280 11 -12
141 43 136 58 -55 134 -122 276 -131 276 -6 0 -36 -12 -66 -26z"/>
<path d="M1150 3095 l0 -265 75 0 75 0 0 265 0 265 -75 0 -75 0 0 -265z"/>
<path d="M3820 3095 l0 -265 75 0 75 0 0 265 0 265 -75 0 -75 0 0 -265z"/>
<path d="M1699 2922 l-57 -27 57 -132 c31 -73 60 -135 63 -138 5 -5 124 39
135 49 8 8 -116 271 -128 273 -8 1 -39 -10 -70 -25z"/>
<path d="M4373 2923 l-61 -26 33 -76 c18 -42 43 -101 55 -131 13 -30 26 -59
30 -63 6 -6 123 34 137 47 6 5 -113 270 -122 272 -6 2 -38 -9 -72 -23z"/>
<path d="M606 2807 c-31 -73 -56 -137 -56 -143 0 -13 122 -65 132 -56 15 15
117 266 111 272 -5 4 -36 18 -69 32 l-61 26 -57 -131z"/>
<path d="M3272 2799 l-61 -140 55 -24 c92 -41 72 -61 174 178 l30 68 -48 20
c-99 43 -83 54 -150 -102z"/>
<path d="M1150 2440 l0 -240 75 0 75 0 0 240 0 240 -75 0 -75 0 0 -240z"/>
<path d="M3820 2440 l0 -240 75 0 75 0 0 240 0 240 -75 0 -75 0 0 -240z"/>
<path d="M1888 2506 l-66 -31 64 -145 c35 -80 65 -149 67 -155 4 -10 137 42
137 54 0 8 -122 295 -129 302 -3 4 -36 -7 -73 -25z"/>
<path d="M4558 2506 l-66 -31 64 -145 c35 -80 65 -149 67 -155 4 -10 137 42
137 54 0 8 -122 295 -129 302 -3 4 -36 -7 -73 -25z"/>
<path d="M421 2374 c-34 -80 -61 -147 -59 -148 12 -8 131 -56 134 -54 3 4 99
224 115 266 8 21 4 25 -57 52 -36 17 -67 30 -68 30 -2 0 -31 -66 -65 -146z"/>
<path d="M3090 2375 c-35 -80 -61 -147 -59 -148 10 -8 132 -57 134 -55 2 2 28
64 60 138 32 74 59 138 62 143 3 5 -117 67 -132 67 -1 0 -31 -65 -65 -145z"/>
<path d="M176 1849 c-56 -203 -69 -297 -70 -519 -1 -221 10 -304 59 -455 97
-296 307 -530 604 -674 l85 -41 -427 0 -427 0 0 -75 0 -75 650 0 c358 0 1262
0 2010 0 748 0 1608 0 1910 0 l550 0 0 75 0 75 -297 0 -298 0 65 41 c85 54
184 135 215 175 l24 32 -55 47 -55 47 -62 -59 c-74 -70 -128 -108 -222 -156
-80 -40 -219 -91 -233 -86 -6 2 138 235 318 516 369 577 334 542 346 353 10
-150 -16 -312 -70 -440 -5 -12 10 -24 60 -48 36 -18 67 -32 68 -30 2 2 12 28
24 58 90 233 95 496 15 793 l-26 99 -66 -7 c-226 -24 -497 -135 -669 -275 -35
-28 -65 -50 -66 -48 -2 2 -20 37 -40 78 -133 266 -415 479 -803 609 -116 39
-343 91 -396 91 -23 0 -26 -7 -51 -97 -62 -230 -81 -389 -73 -603 19 -492 244
-845 668 -1050 l83 -40 -834 0 -834 0 72 45 c156 96 246 194 323 350 76 156
93 243 93 460 -1 187 -11 262 -55 413 -25 83 -18 80 -148 57 -237 -42 -450
-136 -619 -273 -30 -24 -55 -42 -56 -40 -1 2 -17 33 -35 70 -154 321 -558 582
-1054 683 -184 37 -168 43 -201 -76z m396 -133 c377 -124 630 -323 745 -586
39 -88 39 -98 13 -143 -55 -93 -110 -304 -110 -420 0 -44 -2 -49 -13 -37 -8 8
-182 278 -387 600 -205 322 -380 595 -388 608 -9 14 -10 22 -3 22 6 0 71 -20
143 -44z m2689 -6 c370 -122 644 -350 741 -616 l22 -61 -31 -59 c-58 -112
-103 -288 -103 -407 0 -44 -2 -49 -14 -37 -10 11 -742 1153 -780 1218 -10 17
16 11 165 -38z m-2494 -775 c253 -396 463 -726 467 -733 10 -16 -15 -11 -154
34 -141 46 -328 139 -425 211 -210 157 -322 329 -377 582 -26 118 -31 394 -9
536 14 97 19 111 31 98 4 -4 215 -332 467 -728z m2663 10 c249 -390 460 -720
468 -733 15 -23 14 -23 -14 -16 -89 21 -233 73 -333 120 -347 164 -527 376
-603 708 -26 113 -31 400 -9 541 14 97 19 111 31 98 4 -4 211 -327 460 -718z
m-1397 336 c-10 -16 -157 -247 -328 -514 -236 -370 -312 -481 -319 -469 -15
26 -20 280 -7 362 25 160 85 282 191 390 101 103 227 179 390 234 94 32 96 32
73 -3z m2670 0 c-10 -15 -157 -247 -328 -514 -182 -284 -314 -481 -319 -476
-5 4 -11 77 -14 162 -4 119 -1 172 12 238 59 289 245 480 580 594 90 31 92 31
69 -4z m-2509 -271 c-1 -145 -4 -188 -22 -251 -57 -209 -189 -362 -407 -471
-69 -35 -245 -102 -245 -93 0 3 147 235 327 516 277 433 328 508 337 492 6
-11 10 -86 10 -193z"/>
</g>
</svg>
