<?xml version="1.0" standalone="no"?>
<!DOCTYPE svg PUBLIC "-//W3C//DTD SVG 20010904//EN"
 "http://www.w3.org/TR/2001/REC-SVG-20010904/DTD/svg10.dtd">
<svg version="1.0" xmlns="http://www.w3.org/2000/svg"
 width="400.000000pt" height="400.000000pt" viewBox="0 0 400.000000 400.000000"
 preserveAspectRatio="xMidYMid meet">

<g transform="translate(0.000000,400.000000) scale(0.100000,-0.100000)"
fill="#000000" stroke="none">
<path d="M0 2573 c0 -833 4 -1423 9 -1417 5 5 16 35 25 66 9 31 24 62 34 67
16 10 16 10 -2 11 -11 0 -17 3 -13 6 6 6 165 -16 292 -41 294 -58 386 -73 375
-62 -5 5 -296 65 -425 87 -118 20 -236 60 -177 60 17 0 22 6 22 25 0 14 6 28
14 31 19 7 25 35 16 82 l-7 41 38 6 c22 4 39 11 39 16 0 5 18 9 40 9 22 0 40
-4 40 -9 0 -5 21 -11 48 -14 83 -11 186 -26 215 -33 17 -4 27 -2 27 5 0 6 7
11 15 11 8 0 15 8 16 18 1 9 7 -3 15 -27 10 -32 11 -48 3 -58 -6 -7 -15 -10
-20 -8 -11 7 -50 -37 -44 -50 3 -5 8 -18 11 -27 3 -10 15 -20 25 -23 10 -3 28
-24 40 -45 12 -21 30 -41 40 -43 12 -3 19 -14 19 -29 0 -29 17 -48 42 -48 10
0 28 -11 40 -25 12 -14 26 -25 32 -25 6 0 25 -21 41 -45 17 -25 36 -45 43 -45
7 0 11 -4 7 -9 -3 -5 0 -13 6 -16 5 -4 8 -14 5 -22 -4 -10 -1 -13 12 -9 13 4
23 -1 32 -19 16 -29 -10 -21 280 -94 205 -52 364 -92 869 -222 63 -16 125 -29
136 -29 12 0 42 15 66 33 24 18 62 45 85 60 22 15 49 35 60 45 37 34 111 92
117 92 3 0 19 12 34 26 15 15 44 39 64 53 20 15 50 38 67 53 34 28 33 25 48
263 4 61 10 117 15 126 4 8 10 78 13 155 6 136 13 277 21 422 4 58 2 74 -10
78 -10 4 -15 20 -15 44 0 25 -5 40 -16 44 -8 3 -12 11 -9 16 4 6 1 9 -7 8 -8
-2 -12 4 -10 15 2 10 -3 17 -13 17 -9 0 -14 4 -11 9 3 5 -1 14 -9 21 -8 7 -15
22 -15 34 -1 31 -34 65 -70 72 -20 4 -27 10 -20 14 9 6 7 11 -6 19 -17 9 -16
10 9 11 15 0 27 4 27 9 0 12 -42 39 -69 43 -18 2 -27 15 -39 53 -17 49 -18 50
-55 47 -44 -4 -61 20 -31 43 18 13 17 14 -10 15 -26 0 -30 13 -5 16 5 1 12 2
16 3 4 0 -7 13 -24 29 -16 15 -33 35 -36 45 -4 9 -13 17 -22 17 -8 0 -15 7
-15 15 0 8 -7 15 -16 15 -10 0 -14 6 -11 15 4 8 2 17 -4 21 -6 3 -8 12 -6 18
9 22 -31 37 -79 30 -24 -3 -42 -10 -39 -14 3 -5 -4 -6 -16 -3 -11 3 -17 9 -12
12 15 11 43 60 43 76 0 12 -4 13 -18 4 -15 -9 -51 -8 -158 6 -76 9 -142 22
-145 27 -4 6 -7 117 -8 246 -1 130 -4 238 -7 241 -2 2 -4 -48 -4 -112 0 -84
-3 -117 -12 -117 -9 0 -9 -3 0 -12 7 -7 12 -36 12 -65 l0 -52 -40 -12 c-22 -7
-40 -16 -40 -21 0 -4 -17 -5 -39 -2 -30 5 -39 3 -45 -11 -5 -15 0 -17 38 -14
24 2 42 1 40 -3 -2 -4 5 -13 17 -22 12 -8 18 -19 14 -26 -4 -7 1 -14 14 -17
18 -5 19 -7 5 -20 -13 -13 -17 -13 -32 -1 -23 20 -52 11 -52 -15 0 -44 -16
-47 -27 -7 -9 34 -8 40 5 40 13 0 13 3 4 12 -9 10 -16 8 -29 -5 -11 -11 -13
-17 -5 -17 23 0 12 -26 -18 -43 -17 -10 -30 -22 -30 -28 0 -21 -38 -8 -44 16
-7 27 -25 32 -44 13 -9 -9 -12 -6 -12 14 0 15 5 28 12 30 9 3 9 6 0 12 -7 4
-12 2 -12 -3 0 -6 -5 -11 -10 -11 -7 0 -7 6 0 19 11 22 -12 92 -24 72 -4 -6
-14 -11 -22 -11 -11 0 -12 4 -4 19 5 11 10 27 10 37 0 13 -3 14 -15 4 -12 -10
-15 -10 -15 3 0 8 6 18 13 20 6 3 -5 3 -25 0 -25 -4 -38 -2 -38 6 0 6 5 11 10
11 16 0 11 27 -6 34 -10 4 -13 13 -9 27 6 19 5 19 -17 7 -12 -7 -25 -16 -28
-19 -3 -3 -13 -8 -22 -12 -11 -4 -18 -17 -18 -32 0 -26 -15 -34 -23 -12 -2 6
-3 3 -1 -7 2 -11 -2 -26 -9 -34 -9 -11 -7 -18 9 -31 16 -12 18 -19 9 -27 -16
-15 -85 -27 -85 -15 0 5 -9 13 -20 16 -16 5 -20 15 -20 55 0 40 -4 50 -20 55
-22 7 -27 40 -7 49 6 3 2 3 -10 0 -23 -5 -32 9 -13 21 6 3 10 13 10 22 0 14
-2 14 -19 -1 -16 -15 -19 -15 -31 -1 -11 13 -10 18 6 30 17 13 17 14 2 15 -9
0 -18 -6 -20 -12 -8 -24 -38 19 -38 54 0 38 -30 78 -59 78 -29 0 -38 21 -33
73 3 31 9 47 18 47 8 0 14 5 14 10 0 6 19 10 43 11 l42 1 -40 13 c-37 11 -41
10 -62 -11 -14 -15 -33 -24 -53 -24 -29 0 -30 2 -30 44 0 25 4 48 10 51 6 3
10 1 10 -4 0 -6 18 -11 40 -11 22 0 40 5 40 10 0 6 -14 10 -30 10 -20 0 -38 9
-52 25 -15 18 -28 23 -45 19 -14 -4 -23 -2 -23 5 0 6 -7 11 -16 11 -8 0 -13 4
-10 9 3 4 29 2 58 -5 29 -8 57 -12 63 -10 5 3 2 5 -7 5 -12 1 -18 9 -18 25 0
22 -3 24 -40 19 -36 -5 -40 -4 -40 16 0 18 -4 21 -20 16 -18 -6 -20 -2 -20 39
0 36 -4 46 -20 51 -23 7 -29 60 -7 68 18 6 -10 54 -31 53 -9 -1 -17 4 -17 9 0
6 8 10 18 9 9 0 17 3 17 8 0 4 -4 8 -10 8 -5 0 -10 7 -10 15 0 8 5 15 10 15 6
0 10 11 10 25 l0 25 -400 0 -400 0 0 -1427z m740 1323 c0 -3 -4 -8 -10 -11 -5
-3 -10 -1 -10 4 0 6 5 11 10 11 6 0 10 -2 10 -4z m60 -52 c0 -2 -9 -4 -21 -4
-11 0 -18 4 -14 10 5 8 35 3 35 -6z m-80 -34 c0 -5 -5 -10 -11 -10 -5 0 -7 5
-4 10 3 6 8 10 11 10 2 0 4 -4 4 -10z m96 -74 c3 -14 1 -33 -5 -43 -9 -16 -10
-15 -11 9 0 14 -3 33 -6 42 -3 9 -1 16 5 16 6 0 13 -11 17 -24z m96 -243 c-5
-59 -10 -63 -11 -10 -1 26 3 47 7 47 4 0 6 -17 4 -37z m78 -188 c7 -9 11 -16
9 -18 -45 -25 -47 -26 -60 -10 -11 13 -10 17 6 29 24 18 30 18 45 -1z m70 -64
c0 -22 5 -41 13 -44 7 -3 5 -8 -8 -13 -11 -4 -23 -12 -26 -17 -4 -5 -12 -6
-18 -2 -9 5 -7 11 6 21 16 12 16 15 3 24 -15 11 -40 9 -73 -5 -17 -7 -18 -6
-6 13 9 14 20 20 31 16 30 -9 60 6 55 27 -3 12 0 19 9 19 10 0 14 -12 14 -39z
m60 -81 c0 -21 -24 -28 -35 -10 -8 14 3 30 21 30 8 0 14 -9 14 -20z m-45 -30
c4 -6 -7 -10 -27 -10 -25 0 -29 3 -18 10 19 13 37 13 45 0z m366 -43 c-1 -4
-1 -17 -1 -29 0 -19 -2 -20 -10 -8 -13 20 -13 53 1 48 6 -2 10 -7 10 -11z
m-301 -7 c0 -5 -4 -10 -10 -10 -5 0 -10 5 -10 10 0 6 5 10 10 10 6 0 10 -4 10
-10z m63 -50 c7 -25 -7 -34 -32 -20 -11 5 -27 7 -35 4 -10 -4 -16 -1 -16 9 0
10 12 17 33 20 17 2 35 5 38 5 4 1 9 -7 12 -18z m12 -70 c3 -5 1 -10 -4 -10
-6 0 -11 5 -11 10 0 6 2 10 4 10 3 0 8 -4 11 -10z m662 -6 c-3 -3 -12 -4 -19
-1 -8 3 -5 6 6 6 11 1 17 -2 13 -5z m-371 -28 c18 -14 18 -15 1 -22 -22 -8
-71 12 -62 26 9 14 38 12 61 -4z m41 -18 c-3 -7 -5 -2 -5 12 0 14 2 19 5 13 2
-7 2 -19 0 -25z m-187 -22 c0 -9 -8 -12 -25 -8 -28 5 -24 22 6 22 10 0 19 -6
19 -14z m440 -95 c0 -6 -4 -13 -10 -16 -5 -3 -10 1 -10 9 0 9 5 16 10 16 6 0
10 -4 10 -9z m520 -21 c0 -5 -2 -10 -4 -10 -3 0 -8 5 -11 10 -3 6 -1 10 4 10
6 0 11 -4 11 -10z m-45 -30 c13 -6 15 -9 5 -9 -8 0 -22 4 -30 9 -18 12 -2 12
25 0z m-447 -33 c6 0 10 -2 7 -5 -2 -3 0 -14 6 -26 10 -21 10 -21 -6 -1 -9 11
-35 26 -58 32 l-42 13 40 -7 c22 -3 46 -6 53 -6z m382 10 c0 -1 -13 -15 -30
-30 -16 -16 -30 -26 -30 -22 0 3 12 17 26 30 25 23 34 29 34 22z m-80 -47 c0
-5 -5 -10 -11 -10 -5 0 -7 5 -4 10 3 6 8 10 11 10 2 0 4 -4 4 -10z m177 -22
c-3 -8 -6 -5 -6 6 -1 11 2 17 5 13 3 -3 4 -12 1 -19z m-176 -21 c-10 -9 -11
-8 -5 6 3 10 9 15 12 12 3 -3 0 -11 -7 -18z m294 3 c-3 -5 -10 -10 -16 -10 -5
0 -9 5 -9 10 0 6 7 10 16 10 8 0 12 -4 9 -10z m-338 -26 c-3 -3 -12 -4 -19 -1
-8 3 -5 6 6 6 11 1 17 -2 13 -5z m190 -51 c-3 -10 -5 -4 -5 12 0 17 2 24 5 18
2 -7 2 -21 0 -30z m-207 -103 c17 -15 25 -33 26 -63 1 -23 2 -46 3 -51 1 -4 8
-5 17 -2 26 10 51 -11 57 -50 7 -44 -9 -64 -52 -64 -31 0 -49 14 -31 25 22 14
9 26 -20 20 -23 -5 -30 -3 -30 9 0 9 -4 16 -10 16 -17 0 -11 -32 7 -46 22 -16
15 -23 -28 -30 -40 -6 -54 2 -62 37 -5 21 -1 28 26 44 42 24 46 32 40 72 -4
23 0 45 13 68 10 19 19 35 20 35 0 0 12 -9 24 -20z m-170 -266 c0 -20 -18 -17
-29 5 -9 16 -8 18 9 14 11 -3 20 -12 20 -19z m350 -40 c0 -14 -15 -34 -25 -34
-17 0 -28 17 -20 29 4 8 45 12 45 5z m-390 -44 c3 -4 15 -10 28 -14 12 -4 22
-11 22 -16 0 -5 19 -14 43 -21 23 -6 44 -15 47 -19 8 -12 154 -85 168 -83 23
2 13 -43 -12 -55 -13 -6 -27 -20 -31 -32 -4 -13 -13 -19 -23 -16 -9 2 -49 10
-88 16 l-72 11 -4 60 c-3 41 -10 63 -22 72 -9 7 -18 22 -19 35 -1 13 -8 22
-18 22 -17 0 -69 40 -69 53 0 9 42 -2 50 -13z m-1190 -306 c0 -2 -7 -4 -15 -4
-8 0 -15 4 -15 10 0 5 7 7 15 4 8 -4 15 -8 15 -10z m50 -154 c0 -5 -4 -10 -10
-10 -5 0 -10 5 -10 10 0 6 5 10 10 10 6 0 10 -4 10 -10z m-240 -10 c0 -5 -5
-10 -11 -10 -5 0 -7 5 -4 10 3 6 8 10 11 10 2 0 4 -4 4 -10z m220 -50 c0 -5
-7 -10 -16 -10 -8 0 -12 5 -9 10 3 6 10 10 16 10 5 0 9 -4 9 -10z"/>
<path d="M825 3910 c3 -5 10 -10 16 -10 5 0 9 5 9 10 0 6 -7 10 -16 10 -8 0
-12 -4 -9 -10z"/>
<path d="M871 3886 c-6 -7 -9 -21 -5 -30 10 -25 19 -19 19 14 0 35 1 34 -14
16z"/>
<path d="M871 3744 c-7 -17 -8 -31 -1 -42 8 -14 9 -12 10 10 0 15 7 31 16 36
14 8 14 10 1 15 -9 3 -19 -4 -26 -19z"/>
<path d="M978 3753 c12 -2 32 -2 45 0 12 2 2 4 -23 4 -25 0 -35 -2 -22 -4z"/>
<path d="M906 3691 c-3 -5 1 -12 10 -15 27 -10 44 -7 44 9 0 16 -45 21 -54 6z"/>
<path d="M1178 3443 c7 -3 16 -2 19 1 4 3 -2 6 -13 5 -11 0 -14 -3 -6 -6z"/>
<path d="M1057 3396 c-9 -14 -17 -28 -17 -31 0 -11 46 -4 64 10 11 8 30 15 43
15 13 0 23 5 23 10 0 6 -8 10 -19 10 -10 0 -32 3 -48 6 -24 5 -33 1 -46 -20z"/>
<path d="M1200 3314 c0 -8 5 -12 10 -9 6 4 8 11 5 16 -9 14 -15 11 -15 -7z"/>
<path d="M1122 3300 c0 -14 2 -19 5 -12 2 6 2 18 0 25 -3 6 -5 1 -5 -13z"/>
<path d="M1170 3290 c0 -5 5 -10 10 -10 6 0 10 5 10 10 0 6 -4 10 -10 10 -5 0
-10 -4 -10 -10z"/>
<path d="M1460 3190 c0 -5 4 -10 9 -10 6 0 13 5 16 10 3 6 -1 10 -9 10 -9 0
-16 -4 -16 -10z"/>
<path d="M1282 3170 c0 -14 2 -19 5 -12 2 6 2 18 0 25 -3 6 -5 1 -5 -13z"/>
<path d="M1325 3161 c-3 -5 -1 -12 5 -16 5 -3 10 1 10 9 0 18 -6 21 -15 7z"/>
<path d="M1511 3154 c0 -11 3 -14 6 -6 3 7 2 16 -1 19 -3 4 -6 -2 -5 -13z"/>
<path d="M2057 3153 c-15 -14 -5 -21 28 -21 20 0 42 -6 50 -12 22 -18 18 4 -3
23 -19 17 -63 23 -75 10z"/>
<path d="M1310 3105 c0 -8 5 -15 10 -15 6 0 10 7 10 15 0 8 -4 15 -10 15 -5 0
-10 -7 -10 -15z"/>
<path d="M1277 3059 c4 -13 8 -18 11 -10 2 7 -1 18 -6 23 -8 8 -9 4 -5 -13z"/>
<path d="M1275 2990 c0 -26 4 -30 28 -30 l29 0 -29 30 c-15 17 -28 30 -28 30
0 0 0 -13 0 -30z"/>
<path d="M1981 2980 c0 -8 4 -22 9 -30 12 -18 12 -2 0 25 -6 13 -9 15 -9 5z"/>
<path d="M1708 2948 c9 -9 15 -9 24 0 9 9 7 12 -12 12 -19 0 -21 -3 -12 -12z"/>
<path d="M1760 2940 c0 -5 4 -10 9 -10 6 0 13 5 16 10 3 6 -1 10 -9 10 -9 0
-16 -4 -16 -10z"/>
<path d="M1680 2890 c0 -5 5 -10 11 -10 5 0 7 5 4 10 -3 6 -8 10 -11 10 -2 0
-4 -4 -4 -10z"/>
<path d="M2280 2815 c0 -8 -6 -12 -14 -9 -8 3 -17 1 -21 -5 -4 -7 4 -11 19
-11 19 0 26 5 26 20 0 11 -2 20 -5 20 -3 0 -5 -7 -5 -15z"/>
<path d="M2698 2393 c7 -3 16 -2 19 1 4 3 -2 6 -13 5 -11 0 -14 -3 -6 -6z"/>
<path d="M204 1489 c-3 -6 -1 -16 5 -22 8 -8 11 -5 11 11 0 24 -5 28 -16 11z"/>
<path d="M240 1470 c0 -16 4 -30 8 -30 5 0 7 14 4 30 -2 17 -6 30 -8 30 -2 0
-4 -13 -4 -30z"/>
<path d="M172 1379 c2 -7 10 -15 17 -17 8 -3 12 1 9 9 -2 7 -10 15 -17 17 -8
3 -12 -1 -9 -9z"/>
<path d="M218 1343 c7 -3 16 -2 19 1 4 3 -2 6 -13 5 -11 0 -14 -3 -6 -6z"/>
<path d="M900 960 c-9 -6 -10 -10 -3 -10 6 0 15 5 18 10 8 12 4 12 -15 0z"/>
<path d="M2762 754 c-7 -8 -8 -14 -3 -14 10 0 25 19 20 25 -2 1 -10 -3 -17
-11z"/>
</g>
</svg>
