<?xml version="1.0" standalone="no"?>
<!DOCTYPE svg PUBLIC "-//W3C//DTD SVG 20010904//EN"
 "http://www.w3.org/TR/2001/REC-SVG-20010904/DTD/svg10.dtd">
<svg version="1.0" xmlns="http://www.w3.org/2000/svg"
 width="512.000000pt" height="512.000000pt" viewBox="0 0 512.000000 512.000000"
 preserveAspectRatio="xMidYMid meet">

<g transform="translate(0.000000,512.000000) scale(0.100000,-0.100000)"
fill="#000000" stroke="none">
<path d="M533 4714 c-40 -20 -80 -59 -99 -97 -9 -15 -87 -218 -175 -450 -88
-232 -164 -423 -169 -425 -23 -8 -59 -45 -74 -76 -11 -24 -16 -62 -16 -136 0
-111 11 -146 60 -190 l27 -25 82 -939 c45 -516 86 -947 92 -958 25 -46 102
-43 128 5 9 18 -4 208 -69 939 -44 504 -80 923 -80 932 0 14 39 16 390 16 377
0 391 1 410 20 25 25 26 71 1 101 l-19 24 -436 3 -436 3 0 74 0 75 435 0 c422
0 436 1 455 20 25 25 26 71 1 101 l-19 24 -376 3 c-207 1 -376 5 -376 8 0 3
66 179 146 392 203 538 204 538 204 144 l0 -278 29 -46 c19 -30 44 -52 73 -67
41 -19 60 -21 247 -21 201 0 202 0 226 25 32 31 32 69 0 100 -24 25 -26 25
-213 25 -133 0 -192 4 -200 12 -9 9 -12 83 -12 269 l0 258 336 3 336 3 19 24
c23 28 24 69 3 99 l-15 22 -442 0 c-384 0 -446 -3 -474 -16z"/>
<path d="M1728 4710 c-70 -37 -86 -69 -258 -525 -146 -386 -168 -439 -193
-453 -51 -31 -71 -76 -75 -177 -5 -113 8 -164 53 -203 l34 -31 120 -1365 c106
-1208 122 -1371 141 -1413 28 -63 64 -100 125 -129 l50 -24 835 0 835 0 50 24
c61 29 97 66 125 129 19 42 35 206 141 1413 l120 1365 33 30 c44 38 60 103 53
214 -5 93 -24 135 -72 165 -27 17 -46 62 -195 455 -173 459 -188 488 -261 525
-36 19 -60 20 -503 20 l-465 0 -20 -26 c-27 -35 -26 -57 3 -91 l24 -28 361 -3
361 -3 0 -257 c0 -187 -3 -261 -12 -270 -17 -17 -1139 -17 -1156 0 -9 9 -12
83 -12 270 l0 258 79 0 c87 0 137 13 151 40 16 30 12 68 -10 90 -19 19 -33 20
-222 20 -181 -1 -207 -3 -240 -20z m92 -400 c0 -247 2 -274 19 -308 24 -47 56
-77 103 -97 32 -13 116 -15 620 -15 545 0 586 2 623 19 48 22 79 54 100 103
12 31 15 86 15 303 0 218 2 265 14 265 7 0 19 -6 25 -14 6 -7 78 -190 160
-407 l149 -394 -544 -3 c-299 -1 -789 -1 -1088 0 l-544 3 148 393 c82 217 154
400 161 408 6 8 18 14 25 14 12 0 14 -47 14 -270z m1948 -777 l3 -73 -1211 0
-1210 0 0 68 c0 38 3 72 7 75 3 4 547 6 1207 5 l1201 -3 3 -72z m-95 -230 c3
-5 -48 -612 -113 -1351 -82 -930 -122 -1348 -131 -1360 -42 -55 18 -52 -869
-52 -887 0 -827 -3 -869 52 -9 13 -49 420 -131 1360 -65 739 -116 1346 -113
1351 2 4 503 7 1113 7 610 0 1111 -3 1113 -7z"/>
<path d="M2475 2634 c-50 -27 -74 -54 -142 -164 -36 -58 -77 -122 -90 -144
l-25 -38 -19 31 c-21 35 -53 46 -92 32 -49 -19 -53 -46 -23 -178 27 -117 42
-147 77 -158 20 -7 233 31 260 46 23 12 38 59 28 86 -11 30 -54 56 -84 51 -14
-3 -25 -4 -25 -2 0 1 42 69 93 151 90 143 94 148 129 151 34 3 39 -1 78 -52
37 -51 44 -56 80 -56 44 0 70 26 70 71 0 35 -63 129 -107 159 -47 32 -161 39
-208 14z"/>
<path d="M2793 2348 c-26 -13 -37 -37 -63 -151 -26 -109 -24 -144 12 -170 39
-29 74 -18 111 36 10 15 22 1 92 -115 51 -83 79 -141 78 -157 -1 -30 -36 -61
-69 -61 -31 0 -64 -33 -64 -66 0 -64 46 -92 121 -74 95 23 163 111 163 210 -1
62 -5 72 -106 235 -41 66 -77 125 -81 132 -6 9 2 10 27 6 69 -11 112 72 63
121 -18 18 -50 28 -138 44 -64 12 -118 22 -120 21 -2 0 -14 -5 -26 -11z"/>
<path d="M2035 1969 c-11 -5 -29 -24 -41 -42 -65 -99 -55 -205 27 -285 54 -52
106 -62 332 -62 193 0 200 -1 184 -18 -23 -25 -21 -78 3 -102 12 -12 33 -20
53 -20 28 0 44 12 120 92 118 124 118 131 1 250 -47 49 -97 91 -110 94 -60 15
-106 -66 -69 -122 l15 -24 -200 0 c-200 0 -201 0 -225 25 -30 29 -31 50 -5 90
33 50 25 97 -21 120 -32 17 -37 17 -64 4z"/>
<path d="M3656 4708 c-23 -32 -20 -81 5 -104 20 -18 43 -19 355 -22 l334 -3 0
-258 c0 -186 -3 -260 -12 -269 -8 -8 -67 -12 -200 -12 -187 0 -189 0 -213 -25
-32 -31 -32 -69 0 -101 l25 -25 213 3 214 3 40 28 c22 15 49 45 61 66 21 37
22 50 22 315 0 289 2 304 42 259 13 -15 308 -779 308 -797 0 -3 -169 -7 -376
-8 l-376 -3 -19 -24 c-25 -30 -24 -76 1 -101 19 -19 33 -20 455 -20 l435 0 0
-75 0 -74 -436 -3 -436 -3 -19 -24 c-25 -30 -24 -76 1 -101 19 -19 33 -20 410
-20 l390 0 0 -22 c0 -13 -7 -95 -15 -183 -20 -220 -20 -258 5 -280 27 -25 76
-23 102 3 19 18 23 47 42 256 21 232 21 237 48 259 46 39 58 76 58 187 0 74
-5 112 -16 136 -15 31 -51 68 -74 76 -5 2 -83 197 -173 435 -90 238 -174 447
-187 466 -12 18 -39 44 -59 58 l-36 24 -452 3 -451 3 -16 -23z"/>
<path d="M4841 2611 c-24 -24 -16 53 -111 -1046 -44 -506 -83 -931 -86 -944
-3 -13 -18 -36 -34 -52 l-28 -29 -395 0 c-406 0 -448 -4 -467 -40 -16 -30 -12
-68 10 -90 19 -19 33 -20 444 -20 470 0 462 -1 537 67 47 42 76 95 84 150 3
21 44 472 90 1003 82 942 84 966 66 990 -24 33 -82 39 -110 11z"/>
<path d="M299 1189 c-25 -25 -24 -46 10 -419 21 -220 30 -250 101 -314 75 -67
64 -66 535 -66 412 0 426 1 445 20 22 22 26 60 10 90 -19 36 -61 40 -464 40
-427 0 -420 -1 -450 58 -8 17 -23 131 -37 296 -19 224 -26 272 -42 292 -24 31
-78 33 -108 3z"/>
</g>
</svg>
