<?xml version="1.0" standalone="no"?>
<!DOCTYPE svg PUBLIC "-//W3C//DTD SVG 20010904//EN"
 "http://www.w3.org/TR/2001/REC-SVG-20010904/DTD/svg10.dtd">
<svg version="1.0" xmlns="http://www.w3.org/2000/svg"
 width="512.000000pt" height="512.000000pt" viewBox="0 0 512.000000 512.000000"
 preserveAspectRatio="xMidYMid meet">

<g transform="translate(0.000000,512.000000) scale(0.100000,-0.100000)"
fill="#000000" stroke="none">
<path d="M0 3690 l0 -1130 150 0 150 0 0 150 0 150 528 2 527 3 0 825 0 825
-527 3 -528 2 0 150 0 150 -150 0 -150 0 0 -1130z"/>
<path d="M1660 3690 l0 -830 300 0 300 0 0 830 0 830 -300 0 -300 0 0 -830z"/>
<path d="M2560 3551 l0 -468 78 -28 c274 -97 582 -307 767 -525 39 -45 73 -87
77 -93 4 -7 48 9 125 45 65 31 150 65 188 77 165 49 386 63 569 36 55 -8 101
-13 104 -11 7 7 -81 157 -159 271 -338 497 -838 882 -1394 1072 -96 33 -317
93 -342 93 -10 0 -13 -100 -13 -469z"/>
<path d="M805 2300 c-102 -16 -175 -40 -306 -101 -160 -74 -221 -89 -376 -89
l-123 0 0 -376 0 -376 153 4 c171 5 184 9 367 93 63 30 140 61 170 69 131 38
375 38 523 0 34 -8 119 -42 188 -75 162 -75 216 -89 354 -89 136 0 194 14 345
84 63 30 146 63 183 75 149 45 405 46 553 0 38 -11 125 -47 194 -79 148 -68
197 -80 333 -80 133 0 202 18 357 90 173 81 265 102 445 102 180 0 267 -20
457 -106 79 -36 163 -69 188 -75 25 -6 105 -11 178 -11 l132 0 0 375 0 375
-117 0 c-156 0 -227 17 -383 90 -156 73 -246 98 -389 106 -186 11 -361 -25
-533 -112 -123 -62 -172 -75 -298 -81 -147 -6 -212 8 -387 88 -198 89 -254
102 -453 102 -200 0 -261 -14 -454 -104 -154 -71 -220 -89 -341 -89 -125 0
-209 21 -344 83 -142 66 -159 73 -241 92 -79 19 -293 27 -375 15z"/>
<path d="M780 1234 c-30 -8 -107 -39 -170 -68 -63 -30 -146 -64 -184 -75 -70
-22 -238 -41 -358 -41 l-68 0 0 -375 0 -375 2560 0 2560 0 0 375 0 375 -67 0
c-121 0 -289 19 -359 41 -38 11 -125 47 -194 79 -148 69 -196 80 -337 80 -132
0 -193 -16 -353 -90 -69 -32 -154 -66 -188 -75 -142 -36 -373 -37 -509 -1 -66
17 -96 29 -238 96 -135 63 -186 73 -340 68 -146 -5 -167 -11 -345 -94 -63 -29
-142 -60 -175 -69 -148 -39 -392 -36 -531 6 -38 11 -121 45 -184 74 -63 30
-142 61 -175 70 -76 19 -270 19 -345 -1z"/>
</g>
</svg>
